<?xml version="1.0" encoding="UTF-8" standalone="no"?>
<!-- Created with Inkscape (http://www.inkscape.org/) -->

<svg
   width="100mm"
   height="80mm"
   viewBox="0 0 100 80"
   version="1.1"
   id="svg1"
   xml:space="preserve"
   xmlns="http://www.w3.org/2000/svg"
   xmlns:svg="http://www.w3.org/2000/svg"><defs
     id="defs1" /><g
     id="layer1"><path
       id="path3"
       style="fill:#480904;fill-opacity:1;stroke-width:0.915542"
       d="m 49.102429,0.93637695 c 0.194656,0.0501387 0.36449,0.0996669 0.242879,0.0144694 0.04678,2.717e-4 -0.196624,-0.12865631 -0.19637,-0.12867431 9.77e-4,-7.084e-5 -0.02562,0.0640317 -0.04651,0.11420491 z" /><path
       id="path2"
       style="fill:#480904;fill-opacity:1;stroke-width:0.915542"
       d="m 31.495235,0.3591512 c -0.189674,-0.0232438 -0.280601,0.28991097 -0.427364,0.35863444 -0.143074,0.080213 -0.183457,0.16413063 -0.303341,0.22272543 -0.116101,0.056746 -0.380299,0.0143837 -0.437182,0.001034 -0.110519,-0.025937 -0.06633,0.048711 -0.227893,0.028422 -0.02535,0.07193 -0.08511,0.0184609 -0.361219,-0.002067 0.07097,0.045391 -0.726835,-0.15274779 -1.092956,-0.17104899 -0.279678,-0.1189834 -0.01914,0.0181551 -0.226343,0.0129191 0.03554,0.026611 -0.398528,0.0195918 -0.773596,0.0201538 6.16e-4,0.033211 -0.680165,0.005949 -1.024227,0.0103353 -0.216948,0.00683 -0.425994,0.0201524 -0.631486,0.0253214 -0.186015,0.018523 -0.408512,-0.002843 -0.577742,0.003617 -0.171707,-0.00681 -0.276468,0.0233975 -0.38344,0.0361735 -0.121425,0.014502 -0.314959,-0.0622344 -0.353466,-0.0428914 -0.09145,0.045933 -0.11016,0.14567662 -0.270785,0.17518312 -0.06601,0.094312 -0.408083,0.050811 -0.647506,0.045475 -0.186196,1.921e-4 -0.378102,-0.014601 -0.560689,-0.041858 -0.186245,-0.027803 -0.115954,0.05168 -0.240812,0.00568 -0.140424,-0.051737 -0.443634,-0.2747647 -0.642855,-0.2904215 -0.199222,-0.015656 -0.26046,0.2016102 -0.424263,0.2883545 -0.173529,0.091895 0.03332,0.1838603 -0.180868,0.2387451 0.117138,0.09317 -0.499233,0.1399755 -0.871781,0.1374593 -0.05544,0.027404 -0.617438,-0.1718277 -0.857312,-0.214974 -0.190777,-0.034315 -0.335914,-0.057645 -0.403593,-0.1064534 -0.06905,-0.049797 -0.186576,-0.097978 -0.328662,-0.13539224 -0.146117,-0.041837 -0.321912,-0.092161 -0.507463,-0.11627198 -0.196335,-0.048264 -0.423616,-0.0715259 -0.625801,-0.0790649 -0.239132,-0.040197 -0.07411,0.0759642 -0.257866,0.0894002 -0.19421,0.014201 -0.697544,-0.0413207 -0.866097,-0.0248047 -0.160072,0.015685 -0.275545,0.0910573 -0.40721,0.17673342 -0.131666,0.085676 -0.365945,-0.0936702 -0.462504,0.057361 L 15.91169,1.804541 15.481226,1.3580566 c -0.193143,-0.2037724 -0.11766,-0.3050445 -0.143144,-0.2645833 -0.01274,0.02023 -0.193713,0.037957 -0.328145,0.1570964 -0.134432,0.1191394 -0.302608,0.162611 -0.388607,0.3436482 -0.06862,0.1444506 -0.121327,0.289126 -0.20774,0.4175456 -0.06498,0.1384127 -0.183692,0.2562733 -0.297656,0.3653524 -0.106264,0.1103772 -0.08521,0.2941632 -0.225309,0.3751709 -0.0026,0.1817363 -0.371597,0.1330953 -0.604097,0.1612305 -0.186865,0.022613 -0.386303,-0.4909496 -0.565857,-0.4733562 -0.249144,0.024411 -0.394044,0.082816 -0.575159,0.1028361 -0.124813,0.03988 -0.401449,-0.1584446 -0.5271,-0.2356445 -0.105593,-0.064877 -0.06381,0.043708 -0.08216,-0.1436605 -0.02072,-0.211507 0.08995,-0.2510379 -0.04392,-0.2940389 C 11.358444,1.8266523 10.97319,1.7746022 10.564213,1.8701701 10.337742,1.9230911 10.184848,1.9983797 9.9709676,2.0164144 9.8044886,2.0766695 9.484261,2.016564 9.2686849,1.9916097 9.0669741,1.9548887 8.8670142,1.8436435 8.7152303,1.7962728 8.5273332,1.6605525 8.7197907,1.7193305 8.6253133,1.6753499 8.5031423,1.618477 8.0982676,1.4209945 8.0315511,1.3058634 7.9547709,1.173366 7.9438701,1.1233975 7.8661865,1.0914062 7.8234073,1.0837359 7.7837218,1.1222327 7.5700806,1.1570353 7.3672226,1.1900825 6.9696724,1.1971317 6.5536051,1.2748576 6.2454546,1.3324235 6.5281353,1.4006155 6.3360474,1.4262695 6.5408446,1.4942327 6.2540892,1.5242783 5.9412394,1.462443 6.3528306,1.4957354 5.3905788,1.3737121 5.0792765,1.2903605 4.9185768,1.2473329 4.7436543,1.1708142 4.6844686,1.1301636 4.5891862,1.0647205 4.7625964,1.0947506 4.6648315,1.0505819 4.7860077,1.0701784 4.3312081,0.9330036 4.0679687,0.8893514 3.9345497,0.8681975 3.7801879,0.84840916 3.6054647,0.83199056 3.4091573,0.81482786 3.2142468,0.82005859 2.9589925,0.80976969 2.6725053,0.79822189 2.7903021,0.8810769 2.4241414,0.8821167 2.1822655,0.882803 1.3272312,0.62003677 1.0867554,0.62476807 0.74872471,0.47313497 1.1075604,0.70517032 0.92604167,0.72243652 1.0231207,0.81695412 0.13188211,0.66261309 -0.20050456,0.69246419 -0.47196203,0.58571799 -0.60198145,0.6639541 -0.71468506,0.7053833 -0.84886169,0.754706 -0.86216269,0.88313387 -0.92965902,0.89555257 -1.2225183,0.94943627 -1.2775345,1.0467052 -1.3720093,1.1301636 c -0.094475,0.083458 -0.3603237,-0.016695 -0.3638021,0.1808675 -0.003,0.1703553 0.1864574,0.4009784 0.142627,0.550354 0.1592167,0.2468703 -0.1695114,0.3295464 -0.3296956,0.4439005 -0.1161552,0.084893 -0.144729,0.1987953 -0.2986898,0.2439128 -0.158357,0.046406 -0.4286578,0.026179 -0.6046143,0.028939 -0.078403,0.00123 -0.09033,-0.019945 -0.1524455,-0.022221 l -0.1519287,0.2573487 -0.1214396,0.7296712 0.1999878,0.802535 0.012919,0.5916951 0.017053,0.5932455 0.036174,0.6020304 0.6128825,0.6004802 -0.0894,0.1943033 0.026872,0.9963217 0.00672,0.5906616 0.3493327,0.6965983 -0.029456,0.4568197 -0.027388,0.6087479 -0.07028,0.533818 -0.1018025,0.586011 -0.054777,0.469222 -0.067179,0.752925 -0.032039,0.615467 -0.091984,0.321427 0.3720703,0.968933 0.066146,0.583944 0.1421102,0.639237 0.3415812,0.544153 -0.1948201,0.434082 0.07183,0.796851 -0.1700155,0.153479 -0.037207,0.999422 0.2278931,0.572058 -0.1674317,0.536401 0.1229899,0.764295 -0.1312581,0.459403 -0.094568,0.610816 L -2.227771,21.8736 -2.3853841,83.367125 H 103.65827 l -0.0393,-61.463552 -0.0594,-0.700733 -0.0832,-0.603064 -0.0584,-0.543119 0.015,-0.535368 -0.0646,-0.631486 0.15503,-0.569991 0.3669,-0.561723 -0.1111,-0.837158 -0.11266,-0.600997 0.35553,-0.448551 0.18759,-0.697115 0.0971,-0.644922 0.36174,-0.692464 -0.22635,-0.86093 0.0687,-0.40721 -0.15296,-0.730705 0.22789,-0.559656 -0.13487,-0.748791 0.21704,-0.488859 -0.36329,-0.9890871 -0.15347,-0.4139282 0.19068,-0.3922242 -0.1881,-0.7844482 -0.22583,-0.8888346 -0.17363,-0.4382162 -0.14883,-0.550354 -0.14366,-0.42323 0.0987,-0.4914428 -0.37465,-0.8144206 -0.29094,-0.7803141 -0.18913,-0.5426026 0.0636,-0.1793172 -0.3359,-0.5994466 0.0424,-0.3141927 -0.57465,-0.93224286 c -0.28831,0.1718903 -0.39069,0.33860319 -0.55759,0.40565999 -0.1669,0.067056 -0.006,0.11212177 -0.032,0.16536457 -0.0663,0.1352726 -0.0492,0.3136392 -0.33073,0.3012736 -0.28151,-0.012366 -0.90027,-0.2514638 -1.029398,-0.379305 -0.0436,-0.04316 0.183068,0.00898 0.04858,-0.0165365 0.1608,0.055873 -0.658341,-0.32760636 -1.010269,-0.36121826 -0.242069,-0.023119 -0.271462,0.21621631 -0.486792,0.21859131 -0.181838,0.002 -0.400626,-0.0218256 -0.592212,-0.0227376 -0.21061,-0.025137 -0.284072,0.0558903 -0.452168,0.0563273 -0.112545,0.057039 -0.389545,-0.0131973 -0.558106,-0.0299723 -0.140127,-0.013945 -0.28265,-0.0630989 -0.353983,-0.0682129 -0.220265,-0.015797 -0.272552,0.0402648 -0.348816,0.0837158 -0.07626,0.043451 -0.08907,0.0894818 -0.07855,0.19688725 0.0092,0.094785 0.280539,0.2430404 0.181384,0.2919718 -0.09916,0.048931 -0.411461,0.023873 -0.584461,0.040824 -0.137325,0.013455 -0.348127,-0.013805 -0.494543,0.022738 -0.146417,0.036542 -0.345227,-0.017987 -0.37052,0.03359 -0.02534,0.051578 -0.18978,-0.016166 -0.29714,0.056327 -0.107361,0.072493 -0.09816,0.3006034 -0.280086,0.3002401 -0.181914,-3.633e-4 -0.383688,0.00835 -0.54932,0.027905 -0.165633,0.019559 -0.339141,-0.086895 -0.386023,-0.05116 -0.08967,0.068345 -0.184411,0.1326474 -0.148828,0.3291789 -0.04205,0.1107562 0.442183,0.5941766 0.585494,0.8123535 0.119623,0.1821157 -0.103505,0.1300679 0.01137,0.1545125 0.183808,0.039113 0.335075,0.1675892 0.336931,0.2831869 0.0016,0.097544 -0.189822,0.052908 -0.366386,0.045992 -0.02344,0.014307 -0.129213,-0.00131 -0.09508,-0.00465 0.03039,-0.00298 0.0624,0.00337 0.09508,0.00465 0.01,-0.00609 0.0085,-0.015999 -0.03049,-0.037207 C 93.889871,3.343197 93.119847,2.7825963 92.831041,2.601391 92.580461,2.2153522 92.850631,2.573256 92.756631,2.52491 92.745631,2.496954 92.251114,2.3010296 92.0652,2.2133011 91.940071,2.1542561 91.711507,1.7431085 91.7076,1.7032547 c -0.0031,-0.033002 0.03184,-0.062943 0.100769,-0.086816 0.06894,-0.023873 0.164772,-0.1970782 0.220141,-0.33538 0.110773,-0.2766034 0.204786,-0.3673689 0.169499,-0.3963583 -0.01175,-0.00966 -0.163723,-0.0750706 -0.315226,-0.0842326 -0.203839,-0.064349 -0.440696,-0.11443188 -0.658358,-0.10748698 -0.236469,0.00754 -0.301446,0.16649132 -0.604614,0.16484782 -0.329134,-0.00178 -0.586773,0.011063 -0.822689,0.01757 -0.222588,0.020526 -0.448963,0.0164603 -0.609782,0.0454753 -0.157997,0.022551 0.03932,0.17325126 -0.05013,0.23409426 0.200212,0.1794155 -0.398903,-0.077021 -0.49506,0.047025 -0.250915,-0.1384487 -0.0082,0.3100278 0.0016,0.5338176 0.0085,0.1952405 -0.117709,-0.022147 -0.09767,0.1824178 0.03877,0.3959075 0.143035,0.8224422 0.143144,1.0945068 1.09e-4,0.2720647 0.141838,0.4166563 0.06408,0.3989421 -0.11879,-0.027229 -0.49831,-0.268218 -0.521478,-0.4836908 C 88.217694,2.7966256 88.163333,2.6692479 88.1078,2.5905396 88.022241,2.4841082 87.867521,2.0887289 87.737797,2.0360514 87.595312,1.9781916 87.495859,2.2912884 87.184859,2.2024495 87.029492,2.158067 86.949698,2.12042 86.862398,2.0381185 86.775098,1.955817 86.68737,1.832647 86.676363,1.7203084 86.657473,1.5274399 86.694461,1.4208607 86.579211,1.4474569 86.348778,1.5006339 86.060672,1.3527815 85.916203,1.3022461 85.771733,1.2517111 85.86276,1.3403535 85.84799,1.1895915 85.83556,1.0624229 86.348796,0.98199489 86.186471,0.92139079 86.024147,0.86078679 85.16819,0.8016908 84.80516,0.79375 84.63981,0.79013 84.478996,0.798491 84.313717,0.801501 c -0.155533,0.011 -0.401949,-0.27073212 -0.540536,-0.26613362 -0.134646,0.00447 -0.08327,0.34262238 -0.154512,0.34933268 -0.358467,0.033769 -0.370704,0.0457887 -0.104387,0.26458334 0.161128,0.1323708 0.178553,0.2228363 0.186035,0.2992065 0.01199,0.1225231 0.04167,0.2969995 -0.06408,0.4413167 -0.02369,0.1804951 0.08302,0.3807104 -0.132809,0.4976441 -0.197613,0.1070598 -0.735584,0.1344311 -0.944645,0.1860351 -0.340314,0.084 -0.290743,0.1206649 -0.401526,0.085266 -0.110782,-0.035399 -0.435062,-0.2044398 -0.430981,-0.38809 0.0021,-0.1074225 0.403945,-0.1459345 0.376721,-0.263033 -0.02723,-0.1171005 -0.497673,-0.3255018 -0.561723,-0.4190959 -0.128097,-0.1871885 0.07194,-0.266605 0.129708,-0.3369303 0.06659,-0.081055 -0.07698,-0.43655259 -0.208773,-0.50952959 -0.217518,-0.3414356 -0.310812,-0.0721857 -0.526066,-0.0444417 -0.233507,0.030097 -0.604958,-0.074571 -0.905888,-0.045992 -0.28477,0.027044 -0.471546,0.12953028 -0.624251,0.23202718 -0.152706,0.1024971 0.114696,0.32129111 0.05374,0.41134441 -0.108858,0.1608233 -0.368643,0.2353602 -0.641304,0.2371948 -0.272661,0.00184 -0.72439,-0.3146577 -0.866614,-0.4314982 -0.06159,-0.050599 -0.17552,-0.083218 -0.280086,-0.01757 -0.104571,0.065648 -0.152182,0.2586663 -0.351917,0.3167766 -0.177855,0.051743 0.03064,0.1327026 -0.114205,0.1591634 -0.144836,0.026461 -0.737564,-0.1492215 -0.761193,-0.1498617 -0.04724,-0.00128 0.01015,0.247852 -0.04651,0.3622518 -0.07709,0.1556771 -0.264514,-0.3339327 -0.536402,-0.4676717 -0.0999,-0.049138 -0.226759,0.031093 -0.352433,0.127124 -0.125673,0.096031 0.03126,0.2326168 -0.06821,0.2423625 -0.145673,0.014273 -0.290654,0.0032 -0.409277,-0.060461 -0.118625,-0.063664 -0.142073,-0.130631 -0.126607,-0.2997234 0.01762,-0.1926918 0.138503,-0.2494544 0.01964,-0.3209106 -0.118868,-0.071456 -0.424535,-0.11981779 -0.787032,-0.12764079 -0.470314,-0.010147 -0.709716,0.0689717 -1.037146,0.0620117 -0.244752,0.080584 -0.708575,-0.0183341 -0.960665,-0.0217041 -0.209542,-0.00333 -0.157908,0.0136194 -0.298173,0.0232544 0.03758,0.027785 -0.448936,-0.15267188 -0.618567,-0.10748698 -0.181457,-0.1624988 -0.106383,0.14966476 -0.171049,0.23977867 -0.06416,0.089418 -0.300177,-0.036642 -0.368453,0.026872 -0.150926,0.1403977 0.162722,0.3588394 0.0677,0.4532023 0.294004,0.2229446 -0.411478,0.1629738 -0.70745,0.1607138 -0.153758,-0.00118 -0.312146,-0.014198 -0.447518,-0.030489 -0.112974,-0.013595 -0.27856,-0.1019702 -0.446485,-0.1359091 -0.006,0.00546 -0.0023,0.012861 -0.03359,0.012919 -0.205274,3.821e-4 -0.896276,0.027754 -1.080555,0.00775 -0.219046,-0.023776 -0.389122,-0.05028 -0.562239,-0.098185 -0.149825,-0.037609 -0.446156,-0.2492251 -0.564307,-0.315743 -0.108791,-0.061248 -0.209252,-0.24728866 -0.234611,-0.30644126 -0.02419,-0.056417 -0.0272,-0.0672785 -0.08992,-0.0800985 -0.03432,0.00536 -0.172185,-0.0164187 -0.326078,-0.007235 -0.145172,0.00243 -0.341715,-0.002992 -0.580326,0.009819 -0.248206,0.013326 -0.564234,0.0168079 -0.95188,0.0155029 -0.44154,-0.00149 -0.817439,-0.0884806 -1.132231,-0.0842326 -0.320667,-0.0829519 -0.695069,-0.22001075 -0.910022,-0.20050455 -0.338732,-0.216175 -0.379134,0.0673567 -0.509529,0.12712402 -0.146104,0.073506 -0.137818,0.1772894 -0.224276,0.2780192 0.04998,0.097132 -0.194661,0.12616369 -0.285254,0.20877279 -0.08081,0.073681 -0.241851,0.039554 -0.308508,0.1147217 -0.117515,0.1325207 -0.03656,0.2678274 -0.13901,0.3643188 0.05653,0.1293891 -0.211804,0.2459961 -0.457853,0.3054077 -0.192327,0.04644 -0.557768,-0.018774 -0.823206,0.00723 -0.212723,0.020843 -0.508731,-0.025728 -0.700215,0.021704 -0.274523,-0.038085 -0.42497,-0.036299 -0.552421,0.042892 -0.136501,0.084812 0.430504,0.3492807 0.330729,0.4139282 -0.158719,0.1028391 -0.242623,0.1845689 -0.430465,0.2072225 -0.109558,0.039363 -0.344226,0.046794 -0.59738,-0.038757 C 57.761998,2.4650124 57.673631,2.3613927 57.447656,2.1941813 57.31279,2.0943864 57.105926,1.9190908 56.911772,1.8128092 56.70094,1.6460869 56.524916,1.2642729 56.352633,1.1978597 56.165926,1.1258859 56.244753,1.5340925 56.136625,1.5001668 55.730384,1.3727074 55.442872,1.2991323 55.168209,1.2149129 54.916546,1.1564498 54.562086,0.96871398 54.365674,0.92294108 c -0.230562,-0.1231557 -0.288945,-0.1407215 -0.398425,-0.1390096 -0.161516,-0.088142 -0.250057,0.0729616 -0.379822,0.15141194 -0.11068,0.066913 -0.352816,-0.0614622 -0.504362,0.009302 -0.348344,0.16265808 -0.515198,0.28344588 -0.622701,0.33744708 -0.107502,0.054001 0.0088,0.100013 -0.130225,-0.045992 -0.06662,-0.069925 0.170002,-0.076052 0.03101,-0.1317749 0.176958,-0.00821 0.07753,-0.13649602 -0.263033,-0.18810222 -0.224932,-0.034085 -0.978415,-0.0239403 -1.157552,-0.0279053 -0.32507,-0.0072 -0.338511,0.0782329 -0.491443,0.0857829 0.02468,0.10311822 -0.396908,-0.0480781 -0.486275,0.0134359 -0.05744,0.039534 0.240749,0.23638782 0.251664,0.34778242 0.01423,0.1451966 -0.166647,0.1524955 -0.285771,0.2299601 -0.119124,0.077462 -0.127923,0.2577495 -0.243912,0.3074748 -0.213838,0.091673 -0.391983,-0.4060889 -0.527617,-0.5084961 -0.135634,-0.1024068 -0.06441,0.2902931 -0.118339,-0.00568 -0.0307,-0.1684356 0.02077,-0.3193907 0.06356,-0.42219649 -0.09925,-0.0255646 -0.20412,-0.0570725 -0.281636,-0.0594279 -0.132241,-0.064272 -0.17636,-0.004108 -0.277503,-0.006718 -0.132256,-0.00238 -0.284409,-0.0166488 -0.444934,-0.0201538 -0.169532,-0.013501 -0.434718,-0.0958678 -0.626835,-0.0992188 -0.261202,-0.091723 0.02173,0.0273888 -0.167432,0.0268718 0.05208,0.031184 -0.452223,0.12262383 -0.849043,0.12402343 -0.07345,0.12396346 -0.679586,-0.0405774 -1.043348,-0.0496094 -0.28636,-0.042685 -0.531712,-0.00884 -0.808736,-0.0149862 -0.287858,-0.00233 -0.08885,0.051898 -0.386539,0.045992 0.128073,0.057552 -0.647897,0.001482 -1.151868,-0.0211873 C 42.703506,0.84571549 42.037748,0.7274063 41.795898,0.7270874 41.52362,0.7267283 41.157897,0.6306456 40.889494,0.631486 40.557565,0.535597 40.436327,0.6476785 40.204781,0.6500895 c -0.25076,0.01653 -0.373397,0.0729357 -0.63407,0.0775147 -0.147713,0.072128 -0.649515,-0.10680805 -0.946712,-0.10076905 -0.269865,-0.1133551 -0.06413,0.0255192 -0.287321,0.0325562 0.03324,0.0261 -0.722249,0.0282632 -1.073319,0.0434082 -0.213912,0.012643 -0.454018,-0.0923175 -0.661976,-0.0821655 -0.219417,-0.1019678 -0.305777,0.0770195 -0.489892,0.0909505 -0.127126,0.07086 -0.541618,-0.18178034 -0.735356,-0.16588135 -0.262243,-0.2027131 -0.142031,0.0908467 -0.260449,0.1116211 -0.05749,0.094075 -0.364351,0.0356869 -0.518315,0.0682129 -0.131097,-0.00524 -0.008,0.12138467 -0.100252,0.14676107 0.09133,0.1033774 -0.465069,-0.19582815 -0.601514,-0.19637045 -0.07811,-3.104e-4 0.01233,0.16389708 -0.01292,0.16691488 -0.1942,0.023211 -0.45417,-0.0963648 -0.681095,-0.0749308 C 32.938681,0.6462212 32.938814,0.8381381 32.711697,0.8640301 32.609207,0.9213761 32.013325,0.48835364 31.723644,0.51573094 31.632806,0.41165432 31.55846,0.36689914 31.495235,0.3591512 Z m -8.350911,1.4510742 c 0.132792,-0.04366 0.389917,0.3548867 0.473356,0.3348633 0.16688,-0.040047 0.729561,0.085236 0.818038,0.2619995 0.06962,0.1390878 0.01126,0.2675962 -0.106454,0.40566 -0.128596,0.1177649 -0.35363,0.052099 -0.561722,0.151412 -0.262543,-0.1140832 -0.444332,0.1312465 -0.640788,0.201538 -0.188747,0.067533 -0.312253,0.1993047 -0.42013,0.092501 -0.09958,-0.09859 -0.09104,-0.1447774 -0.06615,-0.250114 0.02489,-0.1053366 -0.03476,-0.3965158 0.159163,-0.585494 0.13478,-0.1313413 0.21189,-0.5687062 0.344682,-0.6123657 z m 57.313297,0.9534302 c 0.09841,-0.011225 0.438934,0.5325498 0.61805,0.5818766 0.230068,0.063359 0.279104,0.1404081 0.19327,0.2010213 -0.08583,0.060613 -0.335561,0.074102 -0.607715,0.1007691 -0.24341,0.02385 -0.18669,0.1200607 -0.254764,0.065629 -0.06808,-0.054432 -0.158346,-0.2120849 -0.04858,-0.3457154 0.06324,-0.076973 0.0014,-0.5923557 0.09974,-0.6035807 z" /></g></svg>
